<svg id="Warstwa_1" data-name="Warstwa 1" xmlns="http://www.w3.org/2000/svg" xmlns:xlink="http://www.w3.org/1999/xlink" viewBox="0 0 409.29 397.21"><defs><style>.cls-1{fill:#c3d2e5;}.cls-2{fill:url(#Gradient_bez_nazwy_7);}.cls-3,.cls-5{stroke:#000;stroke-linecap:round;stroke-miterlimit:10;}.cls-3{stroke-width:0.25px;}.cls-4{fill:#fff;}.cls-5{fill:none;stroke-width:2px;}</style><linearGradient id="Gradient_bez_nazwy_7" x1="137.55" y1="269.27" x2="320.44" y2="269.27" gradientTransform="matrix(1, 0.03, -0.03, 1, 7.11, -44.49)" gradientUnits="userSpaceOnUse"><stop offset="0" stop-color="#fff"/><stop offset="1" stop-color="#b3b3b3"/></linearGradient></defs><path class="cls-1" d="M348.12,159.11c14.89,22.13-2.95,64.65-28.4,92.23-25.37,27.38-58.23,40.07-96.06,48.07S143,310.92,121,290.8c-22-19.92-23.25-63.27-16.93-103.17,6.38-40.1,20.29-76.75,43.83-85.21,23.46-8.28,56.81,11.5,97.31,22.28S333.41,137,348.12,159.11Z"/><path class="cls-2" d="M193.24,166.67l1.18-1-4-4.68-2.57,1.74-3.94-4.62,1.6-1.38c-11-12.15-25.79-23.59-29.72-26.57a1.55,1.55,0,0,0-1.94.07l-14.57,12.55A1.69,1.69,0,0,0,139,145a245.08,245.08,0,0,0,21.84,33l1.19-1,3.75,4.41-1.54,2,3.95,4.65,1.18-1s34,49,73.79,89c46.71,46.94,72.46,58.53,72.46,58.53S305.27,301.14,254,233C234.12,206.64,193.24,166.67,193.24,166.67Z"/><path class="cls-3" d="M142.27,133.78l9.06-7.94s-.78-29-32.62-51.24c14.9,14.11,14.89,15.45,16.37,17.79-4.47-3.7-16.37-17.79-41.34-21,12,3.09,28.91,11.22,34.86,18.26C107.68,79.52,98.7,76.45,85.69,77.35c8,7.06,12.85,20.1,15.78,30.12s5.86,19,19.8,27.15c-6-1.05-10-3.08-15-7.11,7,6,13.92,11.1,28.91,12.21Z"/><path class="cls-4" d="M105.59,91.5a296.2,296.2,0,0,1,33.72,37.25C125.9,116.15,105.59,91.5,105.59,91.5Z"/><path class="cls-4" d="M104.05,96s27.76,32.21,32.74,35.25C131.81,129.2,113,110.06,104.05,96Z"/><path class="cls-4" d="M104,101.57s10.85,20.5,30.76,32.65C124.81,129.15,109.89,117.2,104,101.57Z"/><path class="cls-4" d="M104,108.21s5.86,18.82,27.79,28C122.78,133.13,110.81,128.48,104,108.21Z"/><path class="cls-5" d="M160.42,177.57a243.93,243.93,0,0,1-21.83-33,1.7,1.7,0,0,1,.3-2.22l14.58-12.55a1.54,1.54,0,0,1,1.93-.06c3.93,3,18.68,14.42,29.74,26.56l-24.72,21.25Z"/><path d="M161,173l7.11-6.06L146.26,139.3l-4.51,3.83a.92.92,0,0,0-.2,1.16C143.45,147.5,152.06,161.85,161,173Z"/><path d="M151,135.3l23.88,25.91,1.56-1.32c-16.77-18.46-24.13-25.71-24.13-25.71Z"/><rect class="cls-5" x="161.8" y="171.51" width="34.95" height="6.1" rx="0.03" transform="translate(-70.4 157.92) rotate(-40.42)"/><path class="cls-5" d="M159.67,178.09a3.51,3.51,0,0,1,4.52,5.31"/><path class="cls-5" d="M185.89,155.7a3.51,3.51,0,0,0,4.52,5.31"/><path class="cls-5" d="M193.74,167s20.91,17,55.68,60.32,70.2,103.84,66.15,107.29"/><path class="cls-5" d="M169.47,187.65s13.45,23.34,50.7,64.55,91.35,85.84,95.4,82.38"/><path d="M308.38,327.38a.45.45,0,0,1-.6.67l-1.35-1c-20.06-15.26-54.86-46.17-79.82-73.78-34.7-38.4-50.62-62.05-52.38-65a.46.46,0,0,1,.1-.58l6.07-5.17.35-.3s31,38.3,40.7,49.59C242.43,256.15,308.38,327.38,308.38,327.38Z"/><path class="cls-5" d="M220.17,252.2c37.25,41.22,91.35,85.84,95.4,82.38"/><path class="cls-5" d="M189.59,174.69C220,206.63,272.3,265.05,308.17,327.12"/><path d="M309.16,328.29c.33-.26.09-1.52-.59-2.42s-2.52.81-2.52.81S308.31,329,309.16,328.29Z"/></svg>